<svg xmlns="http://www.w3.org/2000/svg" width="237.155" height="224.849" viewBox="0 0 237.155 224.849">
  <path id="blob-2" d="M267.776,144.029c22.758,3.931,40.115,21.718,55.775,38.693,12.883,13.964,16.958,32.709,25.673,49.592,9.271,17.959,31.787,33.135,27.191,52.816C371.728,305.2,342.9,307.4,328.294,321.949c-13.047,13-15.338,36.4-32.385,43.371-17.161,7.013-35.505-5.664-53.881-8.117-22.52-3.006-47.506,4.83-66.306-7.927-20.01-13.577-36.416-37.2-35.835-61.378.578-24.035,28.708-37.252,38.732-59.1,10-21.8,2.073-51.224,19.452-67.747,17.692-16.82,45.65-21.172,69.705-17.017" transform="translate(-139.872 -142.56)" fill="#4083bf"/>
</svg>
